<svg xmlns="http://www.w3.org/2000/svg" width="87" height="70" viewBox="0 0 87 70" fill="none"><path fill-rule="evenodd" clip-rule="evenodd" d="M82.0558 69.1172C81.4826 69.0722 79.4913 68.5896 77.616 68.0834C69.1309 65.7746 58.2794 64.711 52.2107 65.5785C47.783 66.194 45.9621 65.7575 46.9186 64.3147C48.1527 62.453 57.3648 61.3915 65.1492 62.2308C68.9369 62.6313 68.9447 62.6699 64.9672 60.7366C61.4395 59.0345 52.8388 53.9694 52.1087 53.1505C50.0039 50.7167 56.925 50.0793 60.129 52.3708C61.5488 53.4125 64.9531 55.3007 66.5428 56.1871C60.0704 47.7092 58.0509 45.2986 59.8754 44.1633C62.7667 42.3283 64.962 43.8171 71.5113 52.0779C74.5956 55.9649 76.8939 58.3595 80.557 61.5248C87.7825 67.7551 88.1825 69.7285 82.0558 69.1172ZM42.6415 48.3818C37.615 45.0495 33.216 38.8506 34.5197 36.9346C35.723 35.1194 40.2427 37.1443 43.1795 40.9C44.2594 42.2523 46.1467 44.408 47.3735 45.6903C51.1779 49.5522 47.5748 51.6522 42.6415 48.3818ZM43.954 37.9632C42.3632 36.6741 43.2946 34.5113 46.7611 33.5266C55.5386 29.1287 48.7075 19.6761 43.3061 18.0717C40.09 17.1121 40.876 15.6233 44.6699 15.4586C54.4566 15.046 60.449 26.5218 54.1952 33.6312C51.3849 36.8598 45.5913 39.2831 43.954 37.9632ZM22.0215 33.9083C19.7964 32.8687 15.2877 29.1093 14.5561 27.6864C13.0694 24.7245 18.4499 24.2382 21.6707 27.0097C23.5255 28.6078 27.5538 32.1826 28.1128 32.7542C29.7972 34.3063 24.9134 35.2559 22.0215 33.9083ZM30.9994 32.0885C26.8567 29.1412 30.0334 17.9823 35.2962 16.9155C38.5081 16.2644 39.1618 17.5017 37.5768 21.4086C36.4765 24.1294 36.0953 26.4225 36.0278 30.2635C36.0257 32.4394 33.0241 33.5313 30.9994 32.0885ZM9.69966 18.2364C6.40097 18.2605 -0.873619 5.03018 0.767879 1.99819C2.20909 -0.630615 6.95877 0.541832 8.02034 3.79136C8.42614 4.9983 9.12023 6.83169 9.61075 7.8603C12.3598 13.8699 13.4511 16.6702 13.2043 17.0426C12.8262 17.5624 10.9463 18.2254 9.69966 18.2364Z" fill="#E61C24"/></svg>